<svg width="800" height="500" xmlns="http://www.w3.org/2000/svg">
  <!-- 背景 -->
  <rect width="800" height="500" fill="#f9f9f9"/>
  
  <!-- 标题 -->
  <text x="400" y="40" font-family="Arial" font-size="24" text-anchor="middle" fill="#333">脊椎调整中的力量传递过程</text>
  
  <!-- 流程图连接线 -->
  <path d="M 200,200 L 400,200" stroke="#6a8caf" stroke-width="3" fill="none"/>
  <path d="M 400,200 L 600,200" stroke="#6a8caf" stroke-width="3" fill="none"/>
  <path d="M 600,200 L 700,280" stroke="#6a8caf" stroke-width="3" fill="none"/>
  
  <!-- 箭头 -->
  <polygon points="395,200 385,195 385,205" fill="#6a8caf"/>
  <polygon points="595,200 585,195 585,205" fill="#6a8caf"/>
  <polygon points="695,280 685,275 685,285" fill="#6a8caf"/>
  
  <!-- 节点1: 机械冲击 -->
  <circle cx="200" cy="200" r="60" fill="#e6f2ff" stroke="#6a8caf" stroke-width="2"/>
  <text x="200" y="195" font-family="Arial" font-size="16" text-anchor="middle" fill="#333">机械冲击</text>
  <text x="200" y="215" font-family="Arial" font-size="12" text-anchor="middle" fill="#666">(精准的力量)</text>
  
  <!-- 手的图标 -->
  <g transform="translate(160, 160) scale(0.08)">
    <path d="M217.1,377.1c-14.4-11.7-31.5-21.3-50.2-28.7c-18.5-7.3-38.1-12-57.5-13.9v-0.3c-17.9-1.7-36.4-0.9-53.7,2.3 c-19.5,3.6-37.5,10.1-50.7,19.9c-6.6,4.9-11.8,10.6-15.2,16.7c-3.5,6.3-5.2,13-5.2,19.8c0,0.4,0,0.9,0,1.3 c0.3,8.7,3.9,17.1,10.3,24.5c6.5,7.5,15.7,14,27.1,19.3c22.9,10.6,54.1,16.5,88.8,16.5c17.9,0,36.5-1.5,54.7-4.5 c9.1-1.5,18.1-3.4,26.9-5.7c8.8-2.3,17.4-5,25.6-8.1c16.5-6.1,31.5-13.9,43.2-23.2c5.9-4.6,10.9-9.7,14.9-15.1 c4-5.4,7-11.2,8.8-17.2l0.2-0.6l-0.2-0.6C232.6,390.8,226.5,384.4,217.1,377.1z" fill="#6a8caf"/>
  </g>
  
  <!-- 节点2: 先天智能阻力 -->
  <circle cx="400" cy="200" r="60" fill="#fff0e6" stroke="#d1826b" stroke-width="2"/>
  <text x="400" y="195" font-family="Arial" font-size="16" text-anchor="middle" fill="#333">先天智能阻力</text>
  <text x="400" y="215" font-family="Arial" font-size="12" text-anchor="middle" fill="#666">(身体的自然反应)</text>
  
  <!-- 盾牌图标 -->
  <g transform="translate(370, 170) scale(0.06)">
    <path d="M256,512c-68.4,0-132.7-26.6-181-75S0,324.4,0,256S26.6,123.3,75,75S187.6,0,256,0s132.7,26.6,181,75s75,112.6,75,181 s-26.6,132.7-75,181S324.4,512,256,512z M256,40c-119.3,0-216,96.8-216,216s96.8,216,216,216s216-96.8,216-216S375.3,40,256,40z" fill="#d1826b"/>
    <path d="M256,398.2c-78.4,0-142.2-63.8-142.2-142.2S177.6,113.8,256,113.8S398.2,177.6,398.2,256S334.4,398.2,256,398.2z M256,153.8c-56.4,0-102.2,45.8-102.2,102.2S199.6,358.2,256,358.2S358.2,312.4,358.2,256S312.4,153.8,256,153.8z" fill="#d1826b"/>
  </g>
  
  <!-- 节点3: 可用的反应 -->
  <circle cx="600" cy="200" r="60" fill="#e6ffe6" stroke="#6bac6b" stroke-width="2"/>
  <text x="600" y="195" font-family="Arial" font-size="16" text-anchor="middle" fill="#333">可用的反应</text>
  <text x="600" y="215" font-family="Arial" font-size="12" text-anchor="middle" fill="#666">(有益的调整效果)</text>
  
  <!-- 能量图标 -->
  <g transform="translate(570, 170) scale(0.06)">
    <path d="M377.2,252.5l-170-220c-9-11.7-29-3.1-24.4,10.4l45,132.5h-88.7c-12.5,0-19.1,14.6-10.8,24.1l170,220 c9,11.7,29,3.1,24.4-10.4l-45-132.5h88.7C378.9,276.6,385.5,262,377.2,252.5z" fill="#6bac6b"/>
  </g>
  
  <!-- 节点4: 脊椎单元 -->
  <rect x="650" y="280" width="100" height="80" rx="10" ry="10" fill="#e6e6ff" stroke="#8a6bac" stroke-width="2"/>
  <text x="700" y="320" font-family="Arial" font-size="16" text-anchor="middle" fill="#333">脊椎单元</text>
  <text x="700" y="340" font-family="Arial" font-size="12" text-anchor="middle" fill="#666">(vertemere)</text>
  
  <!-- 脊椎图标 -->
  <g transform="translate(660, 290) scale(0.05)">
    <path d="M256,0C114.6,0,0,114.6,0,256s114.6,256,256,256s256-114.6,256-256S397.4,0,256,0z M256,470.9 c-118.9,0-214.9-96-214.9-214.9c0-118.9,96-214.9,214.9-214.9c118.9,0,214.9,96,214.9,214.9C470.9,374.9,374.9,470.9,256,470.9z" fill="#8a6bac"/>
    <path d="M363.4,148.4H148.6c-11.3,0-20.5,9.2-20.5,20.5v174.3c0,11.3,9.2,20.5,20.5,20.5h214.9c11.3,0,20.5-9.2,20.5-20.5V168.9 C384,157.6,374.8,148.4,363.4,148.4z M343,322.6H169v-133.2h174L343,322.6z" fill="#8a6bac"/>
  </g>
  
  <!-- 比喻说明 -->
  <rect x="100" y="400" width="600" height="80" rx="5" ry="5" fill="#f0f0f0" stroke="#ccc" stroke-width="1"/>
  <text x="400" y="425" font-family="Arial" font-size="14" text-anchor="middle" fill="#555">
    <tspan x="400" y="425">就像推动卡住的旋转木马：轻推几乎无效，而精准的冲击力会先遇到阻力，</tspan>
    <tspan x="400" y="450">然后产生有益的反应，让木马恢复正常运转，就像脊椎调整恢复脊柱功能。</tspan>
  </text>
</svg>